<svg width="1440" height="654" viewBox="0 0 1440 654" fill="none" xmlns="http://www.w3.org/2000/svg">
<rect width="1440" height="654" fill="#EFE3D7"/>
<path fill-rule="evenodd" clip-rule="evenodd" d="M1440 603.509H1406C1371 603.509 1303 603.509 1234 590.025C1166 576.541 1097 550.038 1029 546.784C960 543.064 891 563.522 823 590.025C754 616.993 686 650.471 617 653.726C549 656.98 480 630.477 411 616.993C343 603.509 274 603.509 206 610.019C137 616.993 69 630.477 34 636.987L0 643.496V503.077H34C69 503.077 137 503.077 206 503.077C274 503.077 343 503.077 411 503.077C480 503.077 549 503.077 617 503.077C686 503.077 754 503.077 823 503.077C891 503.077 960 503.077 1029 503.077C1097 503.077 1166 503.077 1234 503.077C1303 503.077 1371 503.077 1406 503.077H1440V603.509Z" fill="#F9C7C5"/>
<rect width="1440" height="503.077" fill="#F9C7C5"/>
</svg>
