<svg width="675" height="551" viewBox="0 0 675 551" fill="none" xmlns="http://www.w3.org/2000/svg">
<g filter="url(#filter0_b_251_176)">
<g filter="url(#filter1_b_251_176)">
<path d="M484 83.1995C488 76.6995 497.7 65.5995 498.5 61.1995C504 46.1995 498.5 39.6995 505.5 22.6995C519.5 -6.80047 544 -0.300447 559.5 18.6995C574 21.1996 577.3 29.5996 576.5 33.1996C596 30.6996 596.6 46.0996 595 53.6996C585 74.1996 553 89.3996 549 92.1996C542.5 96.7496 533.1 110.6 533.5 114.2C514.5 121.2 484 93.6996 484 83.1995Z" fill="white" fill-opacity="0.75"/>
<path d="M484 83.1995L482.297 82.1513C482.103 82.4665 482 82.8294 482 83.1995H484ZM498.5 61.1995L496.622 60.511L496.563 60.6725L496.532 60.8417L498.5 61.1995ZM505.5 22.6995L503.693 21.842L503.671 21.8894L503.651 21.938L505.5 22.6995ZM559.5 18.6995L558.932 20.6171L559.044 20.6505L559.16 20.6705L559.5 18.6995ZM576.5 33.1996L574.548 32.7657L574.528 32.8526L574.517 32.9409L576.5 33.1996ZM595 53.6996L596.798 54.5764L596.906 54.3539L596.957 54.1116L595 53.6996ZM549 92.1996L550.147 93.838L549 92.1996ZM533.5 114.2L534.191 116.076L535.661 115.535L535.488 113.979L533.5 114.2ZM522.5 67.5462L521.542 69.3016L522.5 67.5462ZM485.703 84.2477C487.648 81.0881 490.972 76.8227 494.065 72.5924C495.583 70.5154 497.034 68.4596 498.162 66.6279C499.246 64.8688 500.194 63.0652 500.468 61.5573L496.532 60.8417C496.406 61.5338 495.842 62.7677 494.756 64.5305C493.716 66.2207 492.342 68.1711 490.835 70.2316C487.878 74.2763 484.352 78.8109 482.297 82.1513L485.703 84.2477ZM500.378 61.888C503.252 54.0499 503.249 48.3737 503.436 42.7661C503.62 37.2525 503.979 31.647 507.349 23.461L503.651 21.938C500.021 30.752 499.63 36.8965 499.439 42.6329C499.251 48.2753 499.248 53.3491 496.622 60.511L500.378 61.888ZM507.307 23.557C514.075 9.29558 523.083 4.23105 531.874 4.51102C540.89 4.79818 550.401 10.7101 557.95 19.9638L561.05 17.4353C553.099 7.68897 542.61 0.850905 532.001 0.513046C521.167 0.167997 510.925 6.60344 503.693 21.842L507.307 23.557ZM559.16 20.6705C573.079 23.0702 574.995 30.7544 574.548 32.7657L578.452 33.6334C579.605 28.4447 574.922 19.3289 559.84 16.7286L559.16 20.6705ZM576.754 35.1833C581.381 34.5901 584.689 35.0849 587.042 36.1121C589.365 37.1266 590.895 38.7191 591.897 40.6014C593.963 44.4856 593.802 49.6804 593.043 53.2875L596.957 54.1116C597.798 50.1187 598.137 43.8135 595.428 38.7227C594.042 36.1175 591.866 33.8537 588.642 32.4463C585.448 31.0517 581.369 30.559 576.246 31.2158L576.754 35.1833ZM593.202 52.8227C588.442 62.582 578.315 71.2625 568.616 77.9397C563.803 81.2532 559.167 84.0263 555.472 86.1518C553.619 87.2172 552.019 88.111 550.729 88.842C549.483 89.5477 548.449 90.1439 547.853 90.5611L550.147 93.838C550.551 93.5552 551.392 93.0639 552.701 92.3223C553.965 91.6061 555.599 90.6928 557.466 89.6191C561.208 87.4665 565.947 84.6334 570.884 81.2344C580.685 74.4866 591.558 65.3171 596.798 54.5764L593.202 52.8227ZM547.853 90.5611C544.311 93.0408 540.174 97.8736 537.02 102.415C535.425 104.711 534.028 107.009 533.046 108.997C532.556 109.99 532.15 110.943 531.878 111.804C531.621 112.617 531.415 113.55 531.512 114.42L535.488 113.979C535.489 113.989 535.481 113.915 535.511 113.728C535.54 113.548 535.597 113.31 535.692 113.01C535.882 112.407 536.196 111.652 536.632 110.769C537.503 109.006 538.787 106.882 540.305 104.697C543.376 100.276 547.189 95.9083 550.147 93.838L547.853 90.5611ZM535.301 113.33C533.356 109.3 529.482 105.293 524.911 101.611C520.298 97.8945 514.79 94.3644 509.35 91.3282C503.907 88.2901 498.486 85.7209 494.024 83.9363C491.795 83.0448 489.779 82.3384 488.103 81.8677C486.51 81.4203 484.976 81.1113 483.834 81.2064L484.166 85.1926C484.524 85.1628 485.443 85.2756 487.022 85.7188C488.518 86.1388 490.392 86.7917 492.538 87.6502C496.827 89.3657 502.093 91.859 507.4 94.8209C512.71 97.7847 518.015 101.192 522.402 104.726C526.83 108.293 530.144 111.849 531.699 115.069L535.301 113.33ZM532.809 112.323C528.623 113.865 523.643 113.56 518.356 111.879C513.084 110.204 507.683 107.214 502.806 103.648C497.932 100.084 493.658 96.0001 490.624 92.208C489.107 90.3114 487.928 88.5226 487.137 86.9393C486.331 85.3265 486 84.0709 486 83.1995H482C482 84.9531 482.622 86.8538 483.559 88.7273C484.51 90.6304 485.862 92.6579 487.501 94.7067C490.78 98.8053 495.319 103.128 500.445 106.876C505.567 110.623 511.354 113.851 517.144 115.692C522.92 117.527 528.877 118.034 534.191 116.076L532.809 112.323ZM545.692 87.8057L546.133 87.4787L543.749 84.2663L543.308 84.5934L545.692 87.8057ZM546.133 87.4787L561.192 76.3057L558.808 73.0934L543.749 84.2663L546.133 87.4787ZM534.709 78.232C537.954 80.9537 540.914 83.9313 543.358 87.0952L546.524 84.6498C543.872 81.2174 540.7 78.0366 537.279 75.1671L534.709 78.232ZM543.358 87.0952C544.862 89.0424 546.166 91.0531 547.22 93.1113L550.78 91.2878C549.599 88.982 548.157 86.7646 546.524 84.6498L543.358 87.0952ZM537.484 78.0337L545.99 68.5337L543.01 65.8654L534.504 75.3654L537.484 78.0337ZM521.542 69.3016C526.026 71.75 530.584 74.7726 534.709 78.232L537.279 75.1671C532.93 71.5195 528.149 68.3514 523.459 65.7908L521.542 69.3016ZM524.339 68.3333L529.839 55.4867L526.162 53.9124L520.662 66.759L524.339 68.3333ZM509.397 63.9996C513.047 65.1538 517.245 66.9558 521.542 69.3016L523.459 65.7908C518.97 63.34 514.534 61.4287 510.603 60.1858L509.397 63.9996ZM511.836 62.8873L516.336 52.4942L512.665 50.9049L508.165 61.298L511.836 62.8873ZM499.492 62.936C499.869 62.7206 500.643 62.5138 501.967 62.5357L502.033 58.5363C500.402 58.5093 498.789 58.731 497.508 59.463L499.492 62.936ZM501.967 62.5357C503.847 62.5668 506.391 63.0489 509.397 63.9996L510.603 60.1858C507.405 59.1745 504.45 58.5762 502.033 58.5363L501.967 62.5357ZM503.829 61.3454C505.339 57.9344 507.508 52.781 509.104 48.4119C509.897 46.2394 510.573 44.1958 510.948 42.6383C511.13 41.8809 511.273 41.1129 511.282 40.4593C511.286 40.1464 511.265 39.6886 511.092 39.2258C510.902 38.7178 510.433 37.9961 509.485 37.7593L508.515 41.6398C507.768 41.453 507.442 40.8849 507.344 40.6242C507.264 40.4087 507.284 40.292 507.282 40.4041C507.279 40.6004 507.223 41.018 507.059 41.7031C506.739 43.0308 506.128 44.9003 505.347 47.0395C503.793 51.294 501.662 56.3588 500.171 59.7266L503.829 61.3454ZM574.517 32.9409C573.834 38.1763 570.83 43.5979 567.178 47.8002C565.365 49.8863 563.445 51.6113 561.664 52.8225C559.836 54.0664 558.346 54.6387 557.367 54.704L557.633 58.6951C559.654 58.5604 561.852 57.5327 563.914 56.1297C566.025 54.694 568.198 52.7253 570.197 50.4239C574.171 45.8512 577.666 39.7228 578.483 33.4582L574.517 32.9409ZM582.684 43.5377C583.187 44.6266 583.237 45.9305 582.857 47.4422C582.475 48.9625 581.687 50.5667 580.695 52.1013C579.71 53.6258 578.571 55.0087 577.561 56.0783C576.507 57.195 575.724 57.8326 575.471 57.9846L577.529 61.4145C578.276 60.9666 579.368 59.9917 580.47 58.824C581.617 57.6092 582.915 56.0359 584.055 54.2728C585.188 52.5199 586.212 50.5054 586.737 48.4163C587.264 46.3186 587.314 44.0225 586.316 41.8614L582.684 43.5377ZM560.068 16.7819C552.167 14.4409 544.387 19.3771 539.123 25.0376C536.426 27.938 534.211 31.2044 532.763 34.234C532.039 35.7492 531.488 37.2436 531.175 38.6337C530.867 39.9992 530.757 41.3995 531.053 42.6576L534.947 41.7415C534.843 41.2996 534.84 40.5656 535.077 39.5131C535.308 38.4852 535.741 37.2781 536.372 35.9589C537.633 33.3197 539.612 30.3861 542.052 27.7615C547.064 22.372 553.333 18.9582 558.932 20.6171L560.068 16.7819ZM527.476 24.0115C528.106 20.0203 530.582 17.4444 533.398 15.955C534.814 15.206 536.285 14.7525 537.576 14.5526C538.911 14.346 539.883 14.4355 540.368 14.5969L541.633 10.8022C540.317 10.3636 538.639 10.3406 536.965 10.5996C535.247 10.8654 533.349 11.4556 531.528 12.4191C527.868 14.3547 524.394 17.8788 523.525 23.3876L527.476 24.0115Z" fill="#545454"/>
</g>
<g filter="url(#filter2_d_251_176)">
<path d="M127.232 272.868C129.92 272.868 132.309 273.167 134.4 273.764C142.763 276.153 147.691 282.127 149.184 291.684C149.184 292.58 149.333 293.327 149.632 293.924C150.229 310.052 145.749 328.271 136.192 348.58C135.296 350.073 134.4 352.313 133.504 355.3C132.608 357.689 131.861 359.332 131.264 360.228C129.771 363.513 127.083 364.559 123.2 363.364C121.707 362.468 120.661 361.423 120.064 360.228C119.467 357.241 121.109 353.06 124.992 347.684C134.251 330.361 139.477 319.908 140.672 316.324C145.152 303.78 145.899 293.775 142.912 286.308C139.925 279.737 134.101 276.9 125.44 277.796C125.141 277.796 124.843 277.796 124.544 277.796C109.312 281.081 95.424 290.639 82.88 306.468C70.9333 322.297 61.2267 341.113 53.76 362.916C45.0987 390.692 42.4107 414.884 45.696 435.492C48.384 450.425 53.76 460.58 61.824 465.956C67.7973 470.137 74.5173 470.585 81.984 467.3C95.424 461.028 109.013 448.633 122.752 430.116C126.336 425.636 131.115 418.767 137.088 409.508C146.048 396.068 153.216 386.361 158.592 380.388C166.357 372.324 173.376 368.143 179.648 367.844C181.44 367.545 182.485 368.441 182.784 370.532C182.485 371.727 182.037 372.623 181.44 373.22C174.571 374.116 168.448 377.401 163.072 383.076C158.293 388.153 148.736 401.295 134.4 422.5C133.205 424.292 132.011 425.935 130.816 427.428C116.181 448.036 103.936 461.924 94.08 469.092C91.9893 470.585 89.8987 471.929 87.808 473.124C76.16 480.292 65.408 481.487 55.552 476.708C45.3973 470.436 38.528 459.236 34.944 443.108C30.1653 417.721 32.256 390.393 41.216 361.124C50.7733 331.257 65.1093 308.111 84.224 291.684C99.456 279.14 113.792 272.868 127.232 272.868ZM222.387 351.716C223.88 351.716 225.075 352.015 225.971 352.612C227.763 355.001 228.659 359.78 228.659 366.948C228.061 376.207 230.152 383.225 234.931 388.004C238.515 391.289 243.293 391.439 249.267 388.452C251.656 387.556 255.688 383.972 261.363 377.7C262.856 376.505 264.051 375.46 264.947 374.564C265.843 373.071 267.037 372.772 268.531 373.668C268.829 374.265 269.128 374.713 269.427 375.012C265.245 380.687 261.363 385.465 257.779 389.348C250.611 397.412 242.397 400.249 233.139 397.86C231.645 397.561 230.451 397.113 229.555 396.516C221.491 392.036 217.011 383.524 216.115 370.98C214.92 373.071 213.277 376.356 211.187 380.836C207.901 387.705 205.213 392.783 203.123 396.068C197.149 404.729 192.072 409.657 187.891 410.852C182.515 412.047 178.333 409.657 175.346 403.684C175.048 403.087 174.899 402.489 174.899 401.892C173.405 394.724 173.405 386.212 174.899 376.356C176.989 366.799 179.08 360.527 181.171 357.54C182.963 354.553 185.203 353.956 187.891 355.748C188.787 356.644 189.384 357.391 189.683 357.988C189.683 360.079 188.637 368.143 186.547 382.18C185.949 385.465 185.651 388.303 185.651 390.692C185.949 396.367 186.547 400.399 187.443 402.788C189.235 402.788 191.325 401.743 193.715 399.652C199.389 392.484 206.856 379.492 216.115 360.676C216.413 360.079 216.861 359.033 217.459 357.54C218.952 353.956 220.595 352.015 222.387 351.716ZM341.579 228.964C343.072 228.964 344.118 229.412 344.715 230.308C344.715 231.801 344.416 236.431 343.819 244.196C342.326 259.428 340.832 283.769 339.339 317.22C337.846 340.217 337.248 372.772 337.547 414.884C337.547 416.377 338.144 417.124 339.339 417.124C343.52 404.58 346.358 396.367 347.851 392.484C354.123 377.551 360.246 366.052 366.219 357.988C370.102 354.105 373.835 353.359 377.419 355.748C380.406 358.436 382.496 364.708 383.691 374.564C383.691 375.161 383.84 375.759 384.139 376.356C386.528 387.407 388.32 394.127 389.515 396.516C392.203 400.996 395.339 402.788 398.923 401.892C404.896 400.399 411.168 395.769 417.739 388.004C418.635 386.809 420.128 384.868 422.219 382.18C427.296 375.609 431.478 371.279 434.763 369.188C438.048 366.799 441.035 366.948 443.723 369.636C444.619 370.831 445.216 371.876 445.515 372.772C445.814 373.967 445.216 374.564 443.723 374.564C443.126 374.265 442.678 374.116 442.379 374.116C439.691 372.324 437.75 371.577 436.555 371.876C433.27 374.863 427.894 381.433 420.427 391.588C413.259 400.249 408.48 405.476 406.091 407.268C404.598 408.164 403.254 408.911 402.059 409.508C395.19 413.391 388.619 412.644 382.347 407.268C381.152 406.073 380.256 404.879 379.659 403.684C376.374 397.412 373.238 384.42 370.251 364.708C370.251 364.111 370.251 363.663 370.251 363.364C367.563 365.455 365.92 366.799 365.323 367.396C357.558 377.849 350.688 393.231 344.715 413.54C342.027 421.903 339.936 430.564 338.443 439.524C338.443 440.121 338.294 441.017 337.995 442.212C337.099 445.199 336.054 446.991 334.859 447.588C331.872 448.185 329.632 446.393 328.139 442.212C326.646 438.031 325.899 431.908 325.899 423.844C325.003 388.601 325.003 360.975 325.899 340.964C325.899 339.471 326.048 337.231 326.347 334.244C326.646 329.167 326.646 325.433 326.347 323.044C325.451 324.836 323.659 330.063 320.971 338.724C312.608 363.812 304.246 383.225 295.883 396.964C287.819 409.209 280.95 416.825 275.275 419.812C270.795 420.708 267.36 420.26 264.971 418.468C261.088 414.884 259.296 408.313 259.595 398.756C261.088 383.524 264.971 370.233 271.243 358.884C277.216 349.924 281.696 344.399 284.683 342.308C289.163 339.62 293.046 340.068 296.331 343.652C297.227 344.847 297.824 345.892 298.123 346.788C299.318 353.956 299.467 360.527 298.571 366.5C297.974 368.591 296.928 369.636 295.435 369.636C295.136 368.441 294.838 366.5 294.539 363.812C293.643 358.436 292.747 354.553 291.851 352.164C284.086 360.527 278.262 371.279 274.379 384.42C271.392 396.964 270.944 405.775 273.035 410.852C275.723 409.06 278.112 407.119 280.203 405.028C291.851 390.991 303.947 367.545 316.491 334.692C317.984 330.809 318.88 328.719 319.179 328.42C324.555 312.591 327.243 304.377 327.243 303.78C327.542 300.495 327.99 295.716 328.587 289.444C329.184 281.679 329.632 276.004 329.931 272.42C332.32 253.604 334.112 242.255 335.307 238.372C337.099 232.996 338.592 230.009 339.787 229.412C340.683 229.113 341.28 228.964 341.579 228.964ZM495.733 328.868C498.122 328.868 499.616 329.913 500.213 332.004C500.512 337.081 500.362 345.593 499.765 357.54C499.466 360.527 499.018 364.857 498.421 370.532C497.824 378.895 497.376 385.017 497.077 388.9C498.869 386.212 501.258 381.881 504.245 375.908C506.336 371.129 507.978 367.695 509.173 365.604C516.938 352.761 521.269 345.892 522.165 344.996C522.762 343.801 523.36 342.905 523.957 342.308C526.645 338.724 529.781 337.977 533.365 340.068C534.261 340.665 534.858 341.113 535.157 341.412C537.248 344.996 538.144 351.268 537.845 360.228C537.845 362.617 537.696 366.201 537.397 370.98C536.501 382.329 536.8 390.841 538.293 396.516C539.189 400.1 541.13 402.041 544.117 402.34C549.493 401.145 556.064 396.815 563.829 389.348C566.218 387.257 569.653 383.673 574.133 378.596C578.613 374.116 581.898 370.98 583.989 369.188C589.664 364.708 593.696 362.319 596.085 362.02C597.578 361.423 598.624 361.871 599.221 363.364C599.221 364.26 599.072 364.857 598.773 365.156C593.098 367.545 587.872 371.428 583.093 376.804C571.146 390.543 561.589 400.249 554.421 405.924C548.448 410.703 542.773 412.495 537.397 411.3C530.826 409.807 526.944 404.879 525.749 396.516C525.152 389.647 525.45 373.668 526.645 348.58C523.36 352.463 519.776 358.137 515.893 365.604C515.296 366.5 514.698 367.695 514.101 369.188C513.205 371.279 512.458 372.623 511.861 373.22C508.874 378.596 504.096 388.9 497.525 404.132C497.226 405.028 496.778 406.223 496.181 407.716C494.986 410.404 493.792 412.196 492.597 413.092C489.61 414.287 487.37 413.241 485.877 409.956C484.682 406.372 484.384 399.055 484.981 388.004C485.28 386.212 485.578 383.375 485.877 379.492C486.773 373.22 487.072 368.591 486.773 365.604C486.176 366.5 484.832 369.188 482.741 373.668C474.976 389.497 469.002 399.652 464.821 404.132C463.626 405.327 462.581 406.223 461.685 406.82C457.205 410.703 452.277 411.748 446.901 409.956C440.629 406.671 436.448 399.503 434.357 388.452C433.461 380.985 433.162 374.863 433.461 370.084C433.76 367.097 435.701 366.052 439.285 366.948C440.778 367.545 441.824 368.292 442.421 369.188C443.616 371.876 444.661 376.207 445.557 382.18C446.752 390.543 448.544 396.516 450.933 400.1C451.53 401.892 452.874 402.191 454.965 400.996C460.341 397.412 465.568 390.991 470.645 381.732C476.32 372.175 482.89 356.793 490.357 335.588C492.448 331.705 493.493 329.615 493.493 329.316C494.389 329.017 495.136 328.868 495.733 328.868ZM433.909 341.412C437.493 341.412 439.434 343.353 439.733 347.236C439.733 347.833 439.733 348.281 439.733 348.58C439.136 351.865 436.597 353.508 432.117 353.508C428.832 354.105 426.592 352.463 425.397 348.58C425.397 347.087 425.546 345.892 425.845 344.996C426.741 342.607 429.429 341.412 433.909 341.412ZM616.697 347.236C622.969 347.236 627.449 349.924 630.137 355.3C631.63 355.3 632.974 355.897 634.168 357.092C635.363 360.079 634.617 365.455 631.929 373.22C631.331 375.311 631.033 376.804 631.033 377.7C629.838 382.479 631.182 385.615 635.065 387.108C640.441 387.407 646.563 384.868 653.433 379.492C654.926 378.297 657.166 376.356 660.153 373.668C662.841 371.279 664.782 369.487 665.977 368.292C668.366 366.5 670.009 366.5 670.905 368.292C670.905 368.889 670.755 369.487 670.457 370.084C659.107 382.031 651.193 389.647 646.713 392.932C638.947 398.607 632.227 399.801 626.553 396.516C620.579 392.932 618.041 386.511 618.937 377.252C607.886 393.081 599.822 403.385 594.745 408.164C593.251 409.359 591.907 410.404 590.713 411.3C583.545 415.78 578.169 417.423 574.585 416.228C570.403 413.839 568.462 409.06 568.761 401.892C570.851 388.751 578.318 375.311 591.161 361.572C600.419 352.313 608.931 347.535 616.697 347.236ZM619.385 358.436C618.489 358.735 617.891 358.884 617.593 358.884C611.321 360.676 605.049 364.708 598.777 370.98C589.219 381.135 583.246 391.289 580.857 401.444C580.259 403.833 580.857 405.177 582.649 405.476C588.921 403.087 596.686 396.665 605.945 386.212C606.841 384.719 608.483 382.628 610.873 379.94C616.547 373.071 620.281 367.695 622.073 363.812C623.566 362.02 623.267 360.527 621.177 359.332C620.281 359.033 619.683 358.735 619.385 358.436Z" fill="#B16150"/>
</g>
<g filter="url(#filter3_d_251_176)">
<path d="M171.003 108.878C167.925 108.878 164.901 109.758 161.932 111.517C158.964 113.276 156.325 116.355 154.016 120.753C151.707 125.041 149.838 130.868 148.409 138.235C146.979 145.491 146.265 154.672 146.265 165.777C146.265 176.882 146.979 186.117 148.409 193.484C149.838 200.741 151.762 206.568 154.181 210.966C156.6 215.254 159.403 218.277 162.592 220.037C165.781 221.796 169.134 222.675 172.652 222.675C175.511 222.675 178.425 221.906 181.393 220.366C184.362 218.827 187.056 216.683 189.474 213.934C192.003 211.186 194.092 207.942 195.742 204.204C197.501 200.466 198.6 196.453 199.04 192.165H201.514C201.074 197.112 199.975 201.675 198.215 205.853C196.456 209.921 194.202 213.495 191.454 216.573C188.815 219.542 185.736 221.851 182.218 223.5C178.699 225.149 174.961 225.974 171.003 225.974C165.835 225.974 160.833 224.764 155.995 222.346C151.157 219.817 146.814 216.078 142.966 211.131C139.228 206.073 136.204 199.806 133.895 192.33C131.696 184.743 130.597 175.892 130.597 165.777C130.597 155.662 131.696 146.866 133.895 139.389C136.204 131.803 139.173 125.536 142.801 120.588C146.539 115.53 150.718 111.792 155.335 109.373C159.953 106.844 164.626 105.58 169.354 105.58C171.993 105.58 174.357 106.02 176.446 106.899C178.645 107.779 180.514 108.769 182.053 109.868C183.812 111.077 185.351 112.452 186.671 113.991C187.55 112.342 188.705 110.803 190.134 109.373C191.673 107.834 193.268 106.844 194.917 106.405H197.391C197.171 108.054 197.006 109.703 196.896 111.352C196.786 112.892 196.676 114.541 196.566 116.3C196.566 117.949 196.566 119.598 196.566 121.248C196.566 123.117 196.566 124.986 196.566 126.855C196.676 128.614 196.786 130.263 196.896 131.803C197.006 133.562 197.171 135.266 197.391 136.915H194.917C192.388 127.79 188.98 120.863 184.692 116.135C180.514 111.297 175.951 108.878 171.003 108.878ZM284.839 190.515C284.839 202.94 282.255 211.955 277.087 217.563C272.03 223.17 264.718 225.974 255.152 225.974C243.938 225.974 235.197 222.895 228.93 216.738C222.773 210.471 219.694 201.73 219.694 190.515V112.177L209.799 109.703V108.054H243.608V109.703L233.712 112.177V190.515C233.712 201.62 235.911 209.756 240.309 214.924C244.707 220.092 250.205 222.675 256.802 222.675C260.54 222.675 263.893 222.071 266.862 220.861C269.941 219.542 272.524 217.563 274.613 214.924C276.812 212.285 278.517 208.987 279.726 205.029C280.935 200.961 281.54 196.123 281.54 190.515V113.826L270.82 109.703V108.054H295.559V109.703L284.839 113.826V190.515ZM345.912 108.878C342.833 108.878 339.81 109.758 336.841 111.517C333.872 113.276 331.234 116.355 328.925 120.753C326.616 125.041 324.747 130.868 323.317 138.235C321.888 145.491 321.173 154.672 321.173 165.777C321.173 176.882 321.888 186.117 323.317 193.484C324.747 200.741 326.671 206.568 329.09 210.966C331.508 215.254 334.312 218.277 337.501 220.037C340.689 221.796 344.043 222.675 347.561 222.675C350.42 222.675 353.333 221.906 356.302 220.366C359.27 218.827 361.964 216.683 364.383 213.934C366.912 211.186 369.001 207.942 370.65 204.204C372.409 200.466 373.509 196.453 373.949 192.165H376.422C375.983 197.112 374.883 201.675 373.124 205.853C371.365 209.921 369.111 213.495 366.362 216.573C363.723 219.542 360.645 221.851 357.126 223.5C353.608 225.149 349.87 225.974 345.912 225.974C340.744 225.974 335.741 224.764 330.904 222.346C326.066 219.817 321.723 216.078 317.875 211.131C314.137 206.073 311.113 199.806 308.804 192.33C306.605 184.743 305.506 175.892 305.506 165.777C305.506 155.662 306.605 146.866 308.804 139.389C311.113 131.803 314.082 125.536 317.71 120.588C321.448 115.53 325.626 111.792 330.244 109.373C334.862 106.844 339.535 105.58 344.262 105.58C346.901 105.58 349.265 106.02 351.354 106.899C353.553 107.779 355.422 108.769 356.962 109.868C358.721 111.077 360.26 112.452 361.579 113.991C362.459 112.342 363.613 110.803 365.043 109.373C366.582 107.834 368.176 106.844 369.826 106.405H372.299C372.08 108.054 371.915 109.703 371.805 111.352C371.695 112.892 371.585 114.541 371.475 116.3C371.475 117.949 371.475 119.598 371.475 121.248C371.475 123.117 371.475 124.986 371.475 126.855C371.585 128.614 371.695 130.263 371.805 131.803C371.915 133.562 372.08 135.266 372.299 136.915H369.826C367.297 127.79 363.888 120.863 359.6 116.135C355.422 111.297 350.859 108.878 345.912 108.878ZM411.095 164.128V219.377L420.99 221.851V223.5H387.181V221.851L397.077 219.377V112.177L387.181 109.703V108.054H420.99V109.703L411.095 112.177V160.829H444.904V112.177L435.009 109.703V108.054H468.818V109.703L458.923 112.177V219.377L468.818 221.851V223.5H435.009V221.851L444.904 219.377V164.128H411.095ZM507.569 219.377L517.464 221.851V223.5H483.655V221.851L493.55 219.377V112.177L483.655 109.703V108.054H517.464V109.703L507.569 112.177V219.377Z" fill="#545454"/>
</g>
</g>
<defs>
<filter id="filter0_b_251_176" x="-4" y="-3.50012" width="678.905" height="558" filterUnits="userSpaceOnUse" color-interpolation-filters="sRGB">
<feFlood flood-opacity="0" result="BackgroundImageFix"/>
<feGaussianBlur in="BackgroundImageFix" stdDeviation="2"/>
<feComposite in2="SourceAlpha" operator="in" result="effect1_backgroundBlur_251_176"/>
<feBlend mode="normal" in="SourceGraphic" in2="effect1_backgroundBlur_251_176" result="shape"/>
</filter>
<filter id="filter1_b_251_176" x="382" y="-99.5001" width="315.562" height="316.826" filterUnits="userSpaceOnUse" color-interpolation-filters="sRGB">
<feFlood flood-opacity="0" result="BackgroundImageFix"/>
<feGaussianBlur in="BackgroundImageFix" stdDeviation="50"/>
<feComposite in2="SourceAlpha" operator="in" result="effect1_backgroundBlur_251_176"/>
<feBlend mode="normal" in="SourceGraphic" in2="effect1_backgroundBlur_251_176" result="shape"/>
</filter>
<filter id="filter2_d_251_176" x="23.7759" y="228.964" width="651.129" height="262.912" filterUnits="userSpaceOnUse" color-interpolation-filters="sRGB">
<feFlood flood-opacity="0" result="BackgroundImageFix"/>
<feColorMatrix in="SourceAlpha" type="matrix" values="0 0 0 0 0 0 0 0 0 0 0 0 0 0 0 0 0 0 127 0" result="hardAlpha"/>
<feOffset dy="4"/>
<feGaussianBlur stdDeviation="2"/>
<feComposite in2="hardAlpha" operator="out"/>
<feColorMatrix type="matrix" values="0 0 0 0 1 0 0 0 0 1 0 0 0 0 1 0 0 0 1 0"/>
<feBlend mode="normal" in2="BackgroundImageFix" result="effect1_dropShadow_251_176"/>
<feBlend mode="normal" in="SourceGraphic" in2="effect1_dropShadow_251_176" result="shape"/>
</filter>
<filter id="filter3_d_251_176" x="122.597" y="101.58" width="402.867" height="136.394" filterUnits="userSpaceOnUse" color-interpolation-filters="sRGB">
<feFlood flood-opacity="0" result="BackgroundImageFix"/>
<feColorMatrix in="SourceAlpha" type="matrix" values="0 0 0 0 0 0 0 0 0 0 0 0 0 0 0 0 0 0 127 0" result="hardAlpha"/>
<feOffset dy="4"/>
<feGaussianBlur stdDeviation="4"/>
<feComposite in2="hardAlpha" operator="out"/>
<feColorMatrix type="matrix" values="0 0 0 0 1 0 0 0 0 1 0 0 0 0 1 0 0 0 1 0"/>
<feBlend mode="normal" in2="BackgroundImageFix" result="effect1_dropShadow_251_176"/>
<feBlend mode="normal" in="SourceGraphic" in2="effect1_dropShadow_251_176" result="shape"/>
</filter>
</defs>
</svg>
