<svg width="500" height="501" viewBox="0 0 500 501" fill="none" xmlns="http://www.w3.org/2000/svg">
<mask id="mask0_251_230" style="mask-type:alpha" maskUnits="userSpaceOnUse" x="0" y="0" width="500" height="501">
<circle cx="250" cy="250.5" r="250" fill="#EFE3D7"/>
</mask>
<g mask="url(#mask0_251_230)">
<circle cx="250" cy="250.5" r="250" fill="#EFE3D7"/>
<path d="M179.975 405.685C127.599 376.746 51.5644 398.488 39.949 414.45C20.9703 440.531 13.4829 500.005 48.714 524.975C153.381 599.884 218.171 535.379 237.482 493.763C237.482 467.895 234.917 436.042 179.975 405.685Z" fill="#EDC89E"/>
<path d="M246.514 471.325C240.651 479.204 235.062 493.085 233 499.041C301.946 511.562 440.893 529.093 445.107 499.041C449.322 468.988 425.027 428.796 412.352 412.457C410.52 409.937 398.7 404.623 366.083 403.524C325.31 402.149 253.844 461.475 246.514 471.325Z" fill="#D9AAF0"/>
<path d="M431.535 136.501C417.57 141.709 359.58 145.732 348.218 136.501C303.246 106.678 285.467 25.2541 286.44 13.1826C287.624 -1.4926 429.642 -13.6588 451.418 3.95141C473.194 21.5616 458.992 120.879 431.535 136.501Z" fill="#F7BCF2"/>
<path d="M97.1319 163.855C86.3385 181.275 42.2184 187.288 28.7267 167.642C11.3059 140.564 -34.7079 48.8203 46.9523 24.2039C97.5106 -24.6502 175.242 -3.72629 175.242 28.4644C177.893 51.1872 136.187 149.653 97.1319 163.855Z" fill="#FCBEBF"/>
<path d="M164.51 72.4759C145.385 73.8014 121.431 49.0429 130.899 20.6394C133.739 9.84605 198.357 -3.10912 230.311 -8.23754C262.123 -13.3502 337.534 -2.79354 341.795 20.8761C343.452 34.8412 339.428 69.8722 292.326 76.4997C289.121 76.9505 231.573 77.6043 203.091 77.4465C196.7 78.63 174.924 78.63 164.51 72.4759Z" fill="#C7F2E9"/>
<g filter="url(#filter0_b_251_230)">
<g filter="url(#filter1_b_251_230)">
<path d="M312.704 202.046C314.11 199.761 317.519 195.861 317.8 194.314C319.733 189.043 317.8 186.758 320.26 180.784C325.18 170.417 333.79 172.701 339.237 179.378C344.333 180.257 345.493 183.209 345.212 184.474C352.065 183.596 352.275 189.008 351.713 191.679C348.199 198.883 336.953 204.225 335.547 205.209C333.263 206.808 329.959 211.675 330.1 212.94C323.423 215.4 312.704 205.736 312.704 202.046Z" fill="white" fill-opacity="0.75"/>
<path d="M312.704 202.046L312.491 201.915C312.467 201.954 312.454 201.999 312.454 202.046H312.704ZM317.8 194.314L317.565 194.228L317.558 194.248L317.554 194.27L317.8 194.314ZM320.26 180.784L320.034 180.677L320.029 180.689L320.26 180.784ZM339.237 179.378L339.166 179.618L339.18 179.622L339.195 179.625L339.237 179.378ZM345.212 184.474L344.968 184.42L344.965 184.431L344.964 184.442L345.212 184.474ZM351.713 191.679L351.938 191.788L351.951 191.76L351.958 191.73L351.713 191.679ZM335.547 205.209L335.691 205.413L335.547 205.209ZM330.1 212.94L330.186 213.175L330.37 213.107L330.348 212.913L330.1 212.94ZM321.841 194.628L321.766 194.866H321.766L321.841 194.628ZM319.03 194.081L319.026 194.331L319.03 194.081ZM312.917 202.177C313.613 201.046 314.804 199.516 315.876 198.051C316.408 197.323 316.909 196.612 317.296 195.984C317.677 195.366 317.966 194.797 318.046 194.359L317.554 194.27C317.493 194.605 317.251 195.103 316.87 195.722C316.494 196.332 316.003 197.03 315.472 197.756C314.417 199.198 313.201 200.761 312.491 201.915L312.917 202.177ZM318.035 194.4C319.017 191.722 319.016 189.796 319.082 187.821C319.148 185.858 319.277 183.827 320.491 180.879L320.029 180.689C318.783 183.715 318.649 185.814 318.582 187.804C318.516 189.783 318.516 191.635 317.565 194.228L318.035 194.4ZM320.486 180.891C322.917 175.769 326.222 173.834 329.543 173.939C332.892 174.046 336.345 176.229 339.044 179.536L339.431 179.22C336.682 175.851 333.107 173.553 329.559 173.44C325.983 173.326 322.523 175.432 320.034 180.677L320.486 180.891ZM339.195 179.625C344.218 180.491 345.205 183.353 344.968 184.42L345.456 184.528C345.781 183.065 344.448 180.023 339.28 179.132L339.195 179.625ZM345.243 184.722C346.926 184.506 348.176 184.68 349.098 185.083C350.016 185.484 350.627 186.119 351.022 186.863C351.821 188.364 351.745 190.316 351.469 191.627L351.958 191.73C352.244 190.37 352.343 188.28 351.464 186.628C351.02 185.794 350.329 185.075 349.298 184.624C348.27 184.176 346.924 184.003 345.18 184.226L345.243 184.722ZM351.488 191.569C349.761 195.11 346.118 198.216 342.698 200.57C340.992 201.744 339.351 202.726 338.047 203.476C337.395 203.851 336.829 204.168 336.378 204.423C335.933 204.675 335.592 204.872 335.404 205.004L335.691 205.413C335.854 205.299 336.172 205.114 336.625 204.858C337.072 204.604 337.642 204.286 338.297 203.909C339.606 203.156 341.26 202.167 342.981 200.982C346.414 198.619 350.151 195.452 351.938 191.788L351.488 191.569ZM335.404 205.004C334.225 205.829 332.808 207.475 331.709 209.057C331.157 209.851 330.679 210.639 330.346 211.313C330.18 211.649 330.048 211.961 329.962 212.235C329.877 212.502 329.828 212.757 329.852 212.968L330.348 212.913C330.337 212.807 330.36 212.633 330.438 212.386C330.515 212.145 330.635 211.857 330.795 211.534C331.113 210.889 331.578 210.123 332.12 209.342C333.208 207.775 334.585 206.187 335.691 205.413L335.404 205.004ZM330.325 212.832C329.686 211.507 328.388 210.15 326.797 208.869C325.202 207.583 323.289 206.357 321.392 205.298C319.495 204.239 317.607 203.345 316.059 202.725C315.285 202.416 314.592 202.173 314.024 202.014C313.465 201.857 312.996 201.771 312.683 201.797L312.725 202.295C312.939 202.277 313.332 202.339 313.888 202.495C314.435 202.648 315.109 202.884 315.873 203.189C317.4 203.8 319.268 204.685 321.148 205.734C323.029 206.784 324.916 207.996 326.484 209.258C328.056 210.525 329.284 211.826 329.875 213.049L330.325 212.832ZM330.014 212.706C328.415 213.295 326.554 213.164 324.641 212.556C322.729 211.949 320.788 210.871 319.046 209.597C317.304 208.324 315.772 206.862 314.678 205.495C314.131 204.811 313.697 204.155 313.401 203.562C313.103 202.966 312.954 202.452 312.954 202.046H312.454C312.454 202.562 312.64 203.157 312.954 203.786C313.27 204.419 313.726 205.104 314.288 205.807C315.413 207.213 316.978 208.705 318.751 210.001C320.523 211.297 322.513 212.405 324.489 213.033C326.464 213.66 328.447 213.816 330.186 213.175L330.014 212.706ZM334.115 203.301L334.27 203.186L333.972 202.784L333.817 202.899L334.115 203.301ZM334.27 203.186L339.562 199.259L339.264 198.858L333.972 202.784L334.27 203.186ZM330.816 199.953C331.976 200.926 333.04 201.996 333.923 203.138L334.319 202.832C333.41 201.656 332.32 200.562 331.137 199.57L330.816 199.953ZM333.923 203.138C334.466 203.841 334.94 204.571 335.325 205.323L335.77 205.095C335.369 204.312 334.878 203.557 334.319 202.832L333.923 203.138ZM331.163 199.928L334.152 196.59L333.78 196.256L330.79 199.595L331.163 199.928ZM326.115 196.764C327.714 197.637 329.341 198.716 330.816 199.953L331.137 199.57C329.634 198.309 327.979 197.212 326.354 196.325L326.115 196.764ZM326.464 196.643L328.397 192.128L327.937 191.932L326.005 196.446L326.464 196.643ZM321.766 194.866C323.081 195.282 324.583 195.928 326.115 196.764L326.354 196.325C324.798 195.476 323.266 194.817 321.917 194.39L321.766 194.866ZM322.071 194.727L323.652 191.075L323.193 190.876L321.612 194.529L322.071 194.727ZM317.924 194.531C318.159 194.397 318.526 194.323 319.026 194.331L319.034 193.831C318.496 193.822 318.024 193.898 317.676 194.097L317.924 194.531ZM319.026 194.331C319.747 194.343 320.688 194.526 321.766 194.866L321.917 194.39C320.815 194.041 319.823 193.844 319.034 193.831L319.026 194.331ZM319.259 194.182C319.787 192.988 320.545 191.187 321.101 189.665C321.379 188.905 321.609 188.207 321.734 187.685C321.796 187.427 321.836 187.197 321.839 187.019C321.84 186.932 321.833 186.836 321.801 186.75C321.767 186.659 321.692 186.551 321.551 186.516L321.429 187.001C321.359 186.983 321.334 186.93 321.332 186.925C321.332 186.924 321.334 186.93 321.336 186.946C321.338 186.962 321.339 186.983 321.339 187.012C321.337 187.133 321.308 187.319 321.248 187.568C321.13 188.061 320.907 188.738 320.631 189.493C320.08 191.001 319.327 192.791 318.801 193.98L319.259 194.182ZM344.964 184.442C344.709 186.398 343.597 188.384 342.277 189.902C341.619 190.66 340.916 191.294 340.253 191.745C339.584 192.2 338.98 192.453 338.518 192.483L338.551 192.982C339.143 192.943 339.836 192.633 340.534 192.158C341.238 191.679 341.973 191.015 342.655 190.23C344.015 188.665 345.188 186.592 345.46 184.506L344.964 184.442ZM347.796 187.918C348.029 188.422 348.035 188.992 347.885 189.59C347.735 190.188 347.431 190.799 347.066 191.363C346.703 191.925 346.284 192.433 345.914 192.825C345.538 193.224 345.228 193.486 345.083 193.573L345.34 194.001C345.547 193.878 345.896 193.573 346.278 193.169C346.665 192.758 347.103 192.227 347.486 191.634C347.869 191.043 348.202 190.381 348.37 189.712C348.538 189.041 348.545 188.346 348.25 187.708L347.796 187.918ZM339.308 179.139C336.792 178.393 334.229 179.956 332.408 181.914C331.489 182.902 330.737 184.012 330.25 185.033C330.006 185.543 329.825 186.036 329.725 186.483C329.624 186.928 329.599 187.345 329.681 187.694L330.168 187.58C330.109 187.332 330.121 186.999 330.212 186.593C330.303 186.191 330.469 185.734 330.701 185.249C331.165 184.277 331.887 183.208 332.774 182.255C334.564 180.33 336.938 178.958 339.166 179.618L339.308 179.139ZM327.536 181.175C327.784 179.6 328.767 178.587 329.852 178.014C330.396 177.726 330.961 177.551 331.463 177.473C331.971 177.395 332.392 177.419 332.657 177.507L332.815 177.033C332.447 176.91 331.937 176.894 331.387 176.979C330.831 177.065 330.213 177.257 329.619 177.572C328.428 178.201 327.32 179.332 327.042 181.097L327.536 181.175Z" fill="#545454"/>
</g>
<g filter="url(#filter2_d_251_230)">
<path d="M187.324 268.754C188.269 268.754 189.108 268.859 189.843 269.069C192.782 269.909 194.514 272.008 195.039 275.367C195.039 275.682 195.091 275.944 195.196 276.154C195.406 281.822 193.832 288.224 190.473 295.362C190.158 295.887 189.843 296.674 189.528 297.723C189.213 298.563 188.951 299.14 188.741 299.455C188.216 300.61 187.272 300.977 185.907 300.557C185.382 300.243 185.015 299.875 184.805 299.455C184.595 298.406 185.172 296.936 186.537 295.047C189.791 288.959 191.628 285.286 192.047 284.026C193.622 279.618 193.884 276.101 192.835 273.477C191.785 271.168 189.738 270.171 186.694 270.486C186.589 270.486 186.484 270.486 186.379 270.486C181.026 271.641 176.146 274.999 171.737 280.562C167.539 286.125 164.128 292.738 161.504 300.4C158.46 310.161 157.515 318.663 158.67 325.906C159.614 331.154 161.504 334.722 164.338 336.612C166.437 338.081 168.798 338.239 171.422 337.084C176.146 334.88 180.921 330.524 185.75 324.016C187.009 322.442 188.689 320.028 190.788 316.774C193.937 312.051 196.456 308.639 198.345 306.54C201.074 303.706 203.541 302.237 205.745 302.132C206.375 302.027 206.742 302.342 206.847 303.077C206.742 303.496 206.584 303.811 206.375 304.021C203.96 304.336 201.809 305.491 199.919 307.485C198.24 309.269 194.881 313.888 189.843 321.34C189.423 321.97 189.003 322.547 188.584 323.072C183.441 330.314 179.137 335.195 175.673 337.714C174.939 338.239 174.204 338.711 173.469 339.131C169.376 341.65 165.597 342.07 162.133 340.39C158.565 338.186 156.151 334.25 154.891 328.582C153.212 319.66 153.946 310.056 157.095 299.77C160.454 289.274 165.492 281.14 172.21 275.367C177.563 270.958 182.601 268.754 187.324 268.754ZM220.765 296.464C221.289 296.464 221.709 296.569 222.024 296.779C222.654 297.619 222.969 299.298 222.969 301.817C222.759 305.071 223.494 307.537 225.173 309.217C226.432 310.371 228.112 310.424 230.211 309.374C231.051 309.059 232.468 307.8 234.462 305.596C234.987 305.176 235.407 304.808 235.721 304.493C236.036 303.969 236.456 303.864 236.981 304.179C237.086 304.389 237.191 304.546 237.296 304.651C235.826 306.645 234.462 308.325 233.202 309.689C230.683 312.523 227.797 313.52 224.543 312.68C224.018 312.576 223.598 312.418 223.284 312.208C220.45 310.634 218.875 307.642 218.56 303.234C218.14 303.969 217.563 305.123 216.828 306.698C215.674 309.112 214.729 310.896 213.995 312.051C211.895 315.095 210.111 316.826 208.641 317.246C206.752 317.666 205.283 316.826 204.233 314.727C204.128 314.517 204.076 314.307 204.076 314.097C203.551 311.578 203.551 308.587 204.076 305.123C204.81 301.765 205.545 299.56 206.28 298.511C206.91 297.461 207.697 297.251 208.641 297.881C208.956 298.196 209.166 298.458 209.271 298.668C209.271 299.403 208.904 302.237 208.169 307.17C207.959 308.325 207.854 309.322 207.854 310.161C207.959 312.156 208.169 313.573 208.484 314.412C209.114 314.412 209.849 314.045 210.688 313.31C212.682 310.791 215.307 306.225 218.56 299.613C218.665 299.403 218.823 299.036 219.033 298.511C219.557 297.251 220.135 296.569 220.765 296.464ZM262.653 253.325C263.177 253.325 263.545 253.482 263.755 253.797C263.755 254.322 263.65 255.949 263.44 258.678C262.915 264.031 262.39 272.585 261.865 284.341C261.341 292.423 261.131 303.864 261.236 318.663C261.236 319.188 261.446 319.45 261.865 319.45C263.335 315.042 264.332 312.156 264.857 310.791C267.061 305.543 269.213 301.502 271.312 298.668C272.676 297.304 273.988 297.041 275.248 297.881C276.298 298.826 277.032 301.03 277.452 304.493C277.452 304.703 277.505 304.913 277.61 305.123C278.449 309.007 279.079 311.368 279.499 312.208C280.444 313.783 281.546 314.412 282.805 314.097C284.904 313.573 287.109 311.946 289.418 309.217C289.733 308.797 290.257 308.115 290.992 307.17C292.777 304.861 294.246 303.339 295.401 302.604C296.555 301.765 297.605 301.817 298.549 302.762C298.864 303.181 299.074 303.549 299.179 303.864C299.284 304.284 299.074 304.493 298.549 304.493C298.34 304.389 298.182 304.336 298.077 304.336C297.132 303.706 296.45 303.444 296.03 303.549C294.876 304.598 292.986 306.908 290.362 310.476C287.843 313.52 286.164 315.357 285.324 315.987C284.8 316.302 284.327 316.564 283.907 316.774C281.493 318.138 279.184 317.876 276.98 315.987C276.56 315.567 276.245 315.147 276.035 314.727C274.881 312.523 273.779 307.957 272.729 301.03C272.729 300.82 272.729 300.662 272.729 300.557C271.784 301.292 271.207 301.765 270.997 301.974C268.268 305.648 265.854 311.054 263.755 318.191C262.81 321.13 262.075 324.174 261.551 327.323C261.551 327.532 261.498 327.847 261.393 328.267C261.078 329.317 260.711 329.947 260.291 330.157C259.241 330.366 258.454 329.737 257.929 328.267C257.405 326.798 257.142 324.646 257.142 321.812C256.827 309.427 256.827 299.718 257.142 292.685C257.142 292.161 257.195 291.373 257.3 290.324C257.405 288.539 257.405 287.227 257.3 286.388C256.985 287.017 256.355 288.854 255.41 291.898C252.471 300.715 249.533 307.537 246.594 312.366C243.76 316.669 241.346 319.346 239.351 320.395C237.777 320.71 236.57 320.553 235.73 319.923C234.366 318.663 233.736 316.354 233.841 312.995C234.366 307.642 235.73 302.972 237.934 298.983C240.034 295.834 241.608 293.892 242.658 293.158C244.232 292.213 245.596 292.37 246.751 293.63C247.066 294.05 247.276 294.417 247.381 294.732C247.801 297.251 247.853 299.56 247.538 301.66C247.328 302.394 246.961 302.762 246.436 302.762C246.331 302.342 246.226 301.66 246.121 300.715C245.806 298.826 245.492 297.461 245.177 296.621C242.448 299.56 240.401 303.339 239.036 307.957C237.987 312.366 237.829 315.462 238.564 317.246C239.509 316.617 240.348 315.934 241.083 315.2C245.177 310.266 249.428 302.027 253.836 290.481C254.361 289.117 254.676 288.382 254.781 288.277C256.67 282.714 257.615 279.828 257.615 279.618C257.719 278.463 257.877 276.784 258.087 274.58C258.297 271.851 258.454 269.856 258.559 268.597C259.399 261.984 260.029 257.996 260.448 256.631C261.078 254.742 261.603 253.692 262.023 253.482C262.338 253.377 262.548 253.325 262.653 253.325ZM316.827 288.434C317.667 288.434 318.192 288.802 318.402 289.537C318.507 291.321 318.454 294.312 318.244 298.511C318.139 299.56 317.982 301.082 317.772 303.077C317.562 306.015 317.405 308.167 317.3 309.532C317.93 308.587 318.769 307.065 319.819 304.966C320.554 303.286 321.131 302.079 321.551 301.345C324.28 296.831 325.802 294.417 326.117 294.102C326.326 293.682 326.536 293.368 326.746 293.158C327.691 291.898 328.793 291.636 330.053 292.37C330.367 292.58 330.577 292.738 330.682 292.843C331.417 294.102 331.732 296.307 331.627 299.455C331.627 300.295 331.575 301.555 331.47 303.234C331.155 307.222 331.26 310.214 331.784 312.208C332.099 313.468 332.782 314.15 333.831 314.255C335.72 313.835 338.03 312.313 340.759 309.689C341.598 308.954 342.805 307.695 344.38 305.91C345.954 304.336 347.109 303.234 347.844 302.604C349.838 301.03 351.255 300.19 352.094 300.085C352.619 299.875 352.987 300.033 353.197 300.557C353.197 300.872 353.144 301.082 353.039 301.187C351.045 302.027 349.208 303.391 347.529 305.281C343.33 310.109 339.971 313.52 337.452 315.514C335.353 317.194 333.359 317.824 331.47 317.404C329.16 316.879 327.796 315.147 327.376 312.208C327.166 309.794 327.271 304.179 327.691 295.362C326.536 296.726 325.277 298.721 323.912 301.345C323.702 301.66 323.492 302.079 323.283 302.604C322.968 303.339 322.705 303.811 322.495 304.021C321.446 305.91 319.766 309.532 317.457 314.885C317.352 315.2 317.195 315.619 316.985 316.144C316.565 317.089 316.145 317.719 315.725 318.033C314.676 318.453 313.889 318.086 313.364 316.931C312.944 315.672 312.839 313.1 313.049 309.217C313.154 308.587 313.259 307.59 313.364 306.225C313.679 304.021 313.784 302.394 313.679 301.345C313.469 301.66 312.996 302.604 312.262 304.179C309.533 309.742 307.433 313.31 305.964 314.885C305.544 315.305 305.177 315.619 304.862 315.829C303.287 317.194 301.556 317.561 299.666 316.931C297.462 315.777 295.993 313.258 295.258 309.374C294.943 306.75 294.838 304.598 294.943 302.919C295.048 301.869 295.73 301.502 296.99 301.817C297.515 302.027 297.882 302.289 298.092 302.604C298.512 303.549 298.879 305.071 299.194 307.17C299.614 310.109 300.244 312.208 301.083 313.468C301.293 314.097 301.766 314.202 302.5 313.783C304.39 312.523 306.226 310.266 308.011 307.013C310.005 303.654 312.314 298.248 314.938 290.796C315.673 289.432 316.04 288.697 316.04 288.592C316.355 288.487 316.618 288.434 316.827 288.434ZM295.1 292.843C296.36 292.843 297.042 293.525 297.147 294.89C297.147 295.099 297.147 295.257 297.147 295.362C296.937 296.516 296.045 297.094 294.471 297.094C293.316 297.304 292.529 296.726 292.109 295.362C292.109 294.837 292.162 294.417 292.267 294.102C292.581 293.263 293.526 292.843 295.1 292.843ZM359.338 294.89C361.542 294.89 363.117 295.834 364.061 297.723C364.586 297.723 365.058 297.933 365.478 298.353C365.898 299.403 365.636 301.292 364.691 304.021C364.481 304.756 364.376 305.281 364.376 305.596C363.956 307.275 364.429 308.377 365.793 308.902C367.682 309.007 369.834 308.115 372.248 306.225C372.773 305.806 373.56 305.123 374.61 304.179C375.555 303.339 376.237 302.709 376.657 302.289C377.496 301.66 378.074 301.66 378.388 302.289C378.388 302.499 378.336 302.709 378.231 302.919C374.242 307.118 371.461 309.794 369.887 310.949C367.158 312.943 364.796 313.363 362.802 312.208C360.702 310.949 359.81 308.692 360.125 305.438C356.242 311.001 353.408 314.622 351.623 316.302C351.099 316.721 350.626 317.089 350.206 317.404C347.687 318.978 345.798 319.555 344.538 319.136C343.069 318.296 342.387 316.617 342.492 314.097C343.226 309.479 345.85 304.756 350.364 299.928C353.618 296.674 356.609 294.994 359.338 294.89ZM360.283 298.826C359.968 298.931 359.758 298.983 359.653 298.983C357.449 299.613 355.244 301.03 353.04 303.234C349.682 306.803 347.582 310.371 346.743 313.94C346.533 314.78 346.743 315.252 347.372 315.357C349.577 314.517 352.306 312.261 355.559 308.587C355.874 308.062 356.452 307.327 357.291 306.383C359.286 303.969 360.598 302.079 361.227 300.715C361.752 300.085 361.647 299.56 360.912 299.14C360.598 299.036 360.388 298.931 360.283 298.826Z" fill="#B16150"/>
</g>
<g filter="url(#filter3_d_251_230)">
<path d="M202.707 211.41C201.625 211.41 200.562 211.719 199.519 212.337C198.476 212.955 197.548 214.037 196.737 215.583C195.925 217.09 195.269 219.138 194.766 221.726C194.264 224.277 194.013 227.503 194.013 231.406C194.013 235.308 194.264 238.554 194.766 241.143C195.269 243.693 195.945 245.741 196.795 247.286C197.645 248.793 198.63 249.856 199.751 250.474C200.871 251.092 202.05 251.402 203.286 251.402C204.291 251.402 205.315 251.131 206.358 250.59C207.401 250.049 208.348 249.296 209.198 248.33C210.087 247.364 210.821 246.224 211.401 244.91C212.019 243.596 212.405 242.186 212.56 240.679H213.429C213.275 242.418 212.888 244.021 212.27 245.49C211.652 246.919 210.86 248.175 209.894 249.257C208.966 250.3 207.884 251.112 206.648 251.691C205.411 252.271 204.098 252.561 202.707 252.561C200.891 252.561 199.132 252.136 197.432 251.286C195.732 250.397 194.206 249.083 192.854 247.344C191.54 245.567 190.477 243.365 189.666 240.737C188.893 238.071 188.507 234.96 188.507 231.406C188.507 227.851 188.893 224.76 189.666 222.132C190.477 219.466 191.52 217.264 192.796 215.525C194.109 213.747 195.578 212.434 197.201 211.584C198.823 210.695 200.466 210.25 202.127 210.25C203.054 210.25 203.885 210.405 204.619 210.714C205.392 211.023 206.049 211.371 206.59 211.757C207.208 212.182 207.749 212.665 208.213 213.206C208.522 212.627 208.928 212.086 209.43 211.584C209.971 211.043 210.531 210.695 211.111 210.54H211.98C211.903 211.12 211.845 211.699 211.806 212.279C211.768 212.82 211.729 213.4 211.69 214.018C211.69 214.597 211.69 215.177 211.69 215.757C211.69 216.413 211.69 217.07 211.69 217.727C211.729 218.345 211.768 218.925 211.806 219.466C211.845 220.084 211.903 220.683 211.98 221.263H211.111C210.222 218.056 209.024 215.621 207.517 213.96C206.049 212.26 204.445 211.41 202.707 211.41ZM242.712 240.1C242.712 244.466 241.804 247.634 239.988 249.605C238.211 251.575 235.641 252.561 232.28 252.561C228.338 252.561 225.266 251.479 223.064 249.315C220.9 247.113 219.818 244.041 219.818 240.1V212.569L216.341 211.699V211.12H228.222V211.699L224.745 212.569V240.1C224.745 244.002 225.518 246.861 227.063 248.678C228.609 250.494 230.541 251.402 232.859 251.402C234.173 251.402 235.351 251.189 236.395 250.764C237.477 250.3 238.385 249.605 239.119 248.678C239.892 247.75 240.49 246.591 240.915 245.2C241.341 243.77 241.553 242.07 241.553 240.1V213.148L237.786 211.699V211.12H246.48V211.699L242.712 213.148V240.1ZM264.175 211.41C263.093 211.41 262.031 211.719 260.988 212.337C259.944 212.955 259.017 214.037 258.205 215.583C257.394 217.09 256.737 219.138 256.235 221.726C255.733 224.277 255.481 227.503 255.481 231.406C255.481 235.308 255.733 238.554 256.235 241.143C256.737 243.693 257.413 245.741 258.263 247.286C259.114 248.793 260.099 249.856 261.219 250.474C262.34 251.092 263.518 251.402 264.755 251.402C265.76 251.402 266.783 251.131 267.827 250.59C268.87 250.049 269.817 249.296 270.667 248.33C271.555 247.364 272.29 246.224 272.869 244.91C273.487 243.596 273.874 242.186 274.028 240.679H274.898C274.743 242.418 274.357 244.021 273.739 245.49C273.12 246.919 272.328 248.175 271.362 249.257C270.435 250.3 269.353 251.112 268.117 251.691C266.88 252.271 265.566 252.561 264.175 252.561C262.359 252.561 260.601 252.136 258.901 251.286C257.201 250.397 255.675 249.083 254.322 247.344C253.008 245.567 251.946 243.365 251.134 240.737C250.362 238.071 249.975 234.96 249.975 231.406C249.975 227.851 250.362 224.76 251.134 222.132C251.946 219.466 252.989 217.264 254.264 215.525C255.578 213.747 257.046 212.434 258.669 211.584C260.292 210.695 261.934 210.25 263.596 210.25C264.523 210.25 265.354 210.405 266.088 210.714C266.861 211.023 267.518 211.371 268.059 211.757C268.677 212.182 269.218 212.665 269.681 213.206C269.991 212.627 270.396 212.086 270.899 211.584C271.44 211.043 272 210.695 272.579 210.54H273.449C273.372 211.12 273.314 211.699 273.275 212.279C273.236 212.82 273.198 213.4 273.159 214.018C273.159 214.597 273.159 215.177 273.159 215.757C273.159 216.413 273.159 217.07 273.159 217.727C273.198 218.345 273.236 218.925 273.275 219.466C273.314 220.084 273.372 220.683 273.449 221.263H272.579C271.691 218.056 270.493 215.621 268.986 213.96C267.518 212.26 265.914 211.41 264.175 211.41ZM287.083 230.826V250.242L290.56 251.112V251.691H278.679V251.112L282.156 250.242V212.569L278.679 211.699V211.12H290.56V211.699L287.083 212.569V229.667H298.965V212.569L295.487 211.699V211.12H307.369V211.699L303.891 212.569V250.242L307.369 251.112V251.691H295.487V251.112L298.965 250.242V230.826H287.083ZM320.987 250.242L324.464 251.112V251.691H312.583V251.112L316.06 250.242V212.569L312.583 211.699V211.12H324.464V211.699L320.987 212.569V250.242Z" fill="#545454"/>
</g>
</g>
<path d="M71 76.114C115.224 109.227 85.7414 139.534 122.868 150.198C132.149 152.864 139.793 137.289 139.247 127.187C138.58 114.84 126.144 93.5125 121.776 81.1652C111.948 49.1745 144.707 46.9295 150.713 49.1744C163.27 50.8582 190.023 66.5729 198.759 66.0117C217.868 66.0117 230.971 44.6845 240.253 43.0008C257.724 41.8783 259.362 45.807 261 15.5V1" stroke="url(#paint0_linear_251_230)" stroke-width="2"/>
<path d="M137 472.5C155 456 168 471.2 172 474C227 510 278.5 434.5 308.5 416.5C324.5 406.9 366.5 423.5 362 437.5C358.667 444.667 353.7 461 356.5 467L360.5 475" stroke="url(#paint1_linear_251_230)" stroke-width="2"/>
</g>
<defs>
<filter id="filter0_b_251_230" x="141.205" y="172.03" width="238.589" height="195.647" filterUnits="userSpaceOnUse" color-interpolation-filters="sRGB">
<feFlood flood-opacity="0" result="BackgroundImageFix"/>
<feGaussianBlur in="BackgroundImageFix" stdDeviation="0.702866"/>
<feComposite in2="SourceAlpha" operator="in" result="effect1_backgroundBlur_251_230"/>
<feBlend mode="normal" in="SourceGraphic" in2="effect1_backgroundBlur_251_230" result="shape"/>
</filter>
<filter id="filter1_b_251_230" x="277.311" y="138.292" width="109.993" height="110.437" filterUnits="userSpaceOnUse" color-interpolation-filters="sRGB">
<feFlood flood-opacity="0" result="BackgroundImageFix"/>
<feGaussianBlur in="BackgroundImageFix" stdDeviation="17.5716"/>
<feComposite in2="SourceAlpha" operator="in" result="effect1_backgroundBlur_251_230"/>
<feBlend mode="normal" in="SourceGraphic" in2="effect1_backgroundBlur_251_230" result="shape"/>
</filter>
<filter id="filter2_d_251_230" x="150.966" y="253.325" width="228.828" height="92.3959" filterUnits="userSpaceOnUse" color-interpolation-filters="sRGB">
<feFlood flood-opacity="0" result="BackgroundImageFix"/>
<feColorMatrix in="SourceAlpha" type="matrix" values="0 0 0 0 0 0 0 0 0 0 0 0 0 0 0 0 0 0 127 0" result="hardAlpha"/>
<feOffset dy="1.40573"/>
<feGaussianBlur stdDeviation="0.702866"/>
<feComposite in2="hardAlpha" operator="out"/>
<feColorMatrix type="matrix" values="0 0 0 0 1 0 0 0 0 1 0 0 0 0 1 0 0 0 1 0"/>
<feBlend mode="normal" in2="BackgroundImageFix" result="effect1_dropShadow_251_230"/>
<feBlend mode="normal" in="SourceGraphic" in2="effect1_dropShadow_251_230" result="shape"/>
</filter>
<filter id="filter3_d_251_230" x="185.695" y="208.845" width="141.581" height="47.9332" filterUnits="userSpaceOnUse" color-interpolation-filters="sRGB">
<feFlood flood-opacity="0" result="BackgroundImageFix"/>
<feColorMatrix in="SourceAlpha" type="matrix" values="0 0 0 0 0 0 0 0 0 0 0 0 0 0 0 0 0 0 127 0" result="hardAlpha"/>
<feOffset dy="1.40573"/>
<feGaussianBlur stdDeviation="1.40573"/>
<feComposite in2="hardAlpha" operator="out"/>
<feColorMatrix type="matrix" values="0 0 0 0 1 0 0 0 0 1 0 0 0 0 1 0 0 0 1 0"/>
<feBlend mode="normal" in2="BackgroundImageFix" result="effect1_dropShadow_251_230"/>
<feBlend mode="normal" in="SourceGraphic" in2="effect1_dropShadow_251_230" result="shape"/>
</filter>
<linearGradient id="paint0_linear_251_230" x1="293.759" y1="41.3171" x2="60.7151" y2="85.4874" gradientUnits="userSpaceOnUse">
<stop offset="0.075" stop-color="#A37D58"/>
<stop offset="0.42" stop-color="#DEBB95"/>
<stop offset="0.69" stop-color="#8E6642"/>
<stop offset="1" stop-color="#DEBB95"/>
</linearGradient>
<linearGradient id="paint1_linear_251_230" x1="401.186" y1="427.029" x2="160.22" y2="531.561" gradientUnits="userSpaceOnUse">
<stop offset="0.075" stop-color="#A37D58"/>
<stop offset="0.42" stop-color="#DEBB95"/>
<stop offset="0.69" stop-color="#8E6642"/>
<stop offset="1" stop-color="#DEBB95"/>
</linearGradient>
</defs>
</svg>
